<svg width="143" height="145" viewBox="0 0 143 145" fill="none" xmlns="http://www.w3.org/2000/svg">
<path d="M142.143 74.6535C142.143 69.7591 141.746 64.8383 140.899 60.0233H72.9868V87.7492H111.877C110.263 96.6914 105.078 104.602 97.485 109.628V127.618H120.687C134.312 115.078 142.143 96.5591 142.143 74.6535Z" fill="#4285F4"/>
<path d="M72.9868 145C92.4055 145 108.782 138.624 120.713 127.618L97.5115 109.628C91.0562 114.02 82.7226 116.507 73.0132 116.507C54.2295 116.507 38.303 103.834 32.5885 86.7968H8.64578V105.342C20.8685 129.656 45.7636 145 72.9868 145Z" fill="#34A853"/>
<path d="M32.562 86.7968C29.546 77.8547 29.546 68.1718 32.562 59.2297V40.684H8.6458C-1.56622 61.0287 -1.56622 84.9978 8.6458 105.342L32.562 86.7968Z" fill="#FBBC04"/>
<path d="M72.9868 29.4931C83.2517 29.3344 93.1727 33.1969 100.607 40.2872L121.163 19.7308C108.147 7.50818 90.871 0.788352 72.9868 1C45.7635 1 20.8685 16.3445 8.64578 40.684L32.562 59.2297C38.25 42.1655 54.203 29.4931 72.9868 29.4931Z" fill="#EA4335"/>
</svg>
