<svg width="30" height="14" viewBox="0 0 30 14" fill="none" xmlns="http://www.w3.org/2000/svg">
<path d="M20.8581 12.412C20.1692 12.4332 20.7828 13.4157 20.1357 13.1303C19.4885 12.845 17.5964 11.2989 17.1141 10.7613L17.116 10.7961C16.5413 10.171 15.848 9.67639 15.0845 9.34695C14.321 9.0175 13.5059 8.86116 12.6958 8.88879C11.8858 8.91643 11.1006 9.12729 10.3949 9.50683C9.68916 9.88636 9.08001 10.4253 8.60999 11.0861L8.60807 11.0512C8.05265 11.8472 7.26441 12.4336 6.35095 12.7303C5.43749 13.027 4.44328 13.0195 3.50374 12.7091C2.56428 12.3985 1.72533 11.8001 1.10128 10.9952C0.47722 10.1904 0.0985602 9.21837 0.0167509 8.21178C-0.0650585 7.20519 0.154162 6.21287 0.644347 5.37034C1.13452 4.5278 1.87196 3.87591 2.75592 3.5037C3.63997 3.1314 4.62755 3.05689 5.58404 3.29027C6.54061 3.52355 7.41951 4.05341 8.10085 4.80758L8.09809 4.77371C8.67268 5.39869 9.36584 5.89305 10.1291 6.22246C10.8923 6.55186 11.7072 6.70836 12.5169 6.68094C13.3267 6.65352 14.1118 6.44287 14.8174 6.06367C15.5231 5.68452 16.1323 5.14605 16.6025 4.4857L16.6052 4.51957C17.0615 3.8714 18.3279 2.08511 19.0409 1.76087C19.7538 1.43662 19.8904 2.58502 20.684 2.66484C21.4775 2.74457 22.2491 3.0298 22.9272 3.49387C23.6054 3.95804 24.1681 4.58609 24.5632 5.31982C24.9584 6.05363 25.1732 6.86937 25.1877 7.69151C25.2023 8.51375 25.0161 9.31568 24.6465 10.0231C24.2768 10.7305 23.7356 11.3205 23.0731 11.7385C22.4106 12.1564 21.6482 12.3887 20.8564 12.4139L20.8581 12.412Z" fill="url(#paint0_linear_23_24)"/>
<path d="M16.5774 7.47378C16.8285 11.3308 20.0334 14.2453 23.7356 13.9837C27.4378 13.722 30.2355 10.3832 29.9843 6.52622C29.7332 2.66924 26.5283 -0.245335 22.8261 0.0163265C19.1238 0.277987 16.3262 3.6168 16.5774 7.47378Z" fill="url(#paint1_linear_23_24)"/>
<defs>
<linearGradient id="paint0_linear_23_24" x1="5.7764" y1="14.2749" x2="29.1157" y2="14.2749" gradientUnits="userSpaceOnUse">
<stop stop-color="#E56F8C"/>
<stop offset="0.802083" stop-color="#7476ED"/>
</linearGradient>
<linearGradient id="paint1_linear_23_24" x1="5.7764" y1="14.2749" x2="29.1157" y2="14.2749" gradientUnits="userSpaceOnUse">
<stop stop-color="#E56F8C"/>
<stop offset="0.802083" stop-color="#7476ED"/>
</linearGradient>
</defs>
</svg>
