<svg width="59" height="30" viewBox="0 0 59 30" fill="none" xmlns="http://www.w3.org/2000/svg">
<path d="M3.62584 15.5127V25.4H1.09509V15.5127H3.62584Z" fill="#3A3B7B"/>
<path d="M10.7877 17.4564C11.7547 17.4564 12.5242 17.7568 13.0965 18.3578C13.6786 18.9493 13.9697 19.7662 13.9697 20.8085V25.4H11.4537V21.1324C11.4537 20.6066 11.3107 20.1982 11.0245 19.9071C10.7384 19.616 10.3536 19.4705 9.87017 19.4705C9.38671 19.4705 9.00192 19.616 8.71579 19.9071C8.42966 20.1982 8.2866 20.6066 8.2866 21.1324V25.4H5.75585V17.5409H8.2866V18.5831C8.54313 18.2357 8.88845 17.9634 9.32258 17.7662C9.7567 17.5597 10.2451 17.4564 10.7877 17.4564Z" fill="#3A3B7B"/>
<path d="M19.3838 25.5127C18.6636 25.5127 18.0223 25.3953 17.4599 25.1606C16.8975 24.9259 16.4535 24.6066 16.1279 24.2029C15.8023 23.7897 15.6198 23.3296 15.5803 22.8226H18.0815C18.1111 23.0949 18.2443 23.3155 18.4811 23.4845C18.7179 23.6536 19.0089 23.7381 19.3542 23.7381C19.67 23.7381 19.9117 23.6817 20.0794 23.569C20.257 23.447 20.3458 23.2921 20.3458 23.1043C20.3458 22.8789 20.2225 22.7146 19.9758 22.6113C19.7292 22.4986 19.3296 22.3766 18.777 22.2451C18.1851 22.1137 17.6917 21.9775 17.2971 21.8367C16.9024 21.6864 16.562 21.4564 16.2759 21.1465C15.9898 20.8273 15.8467 20.4 15.8467 19.8648C15.8467 19.4141 15.975 19.0057 16.2315 18.6395C16.4979 18.2639 16.8827 17.9681 17.3859 17.7521C17.8989 17.5362 18.5057 17.4282 19.2062 17.4282C20.2422 17.4282 21.0562 17.6723 21.6482 18.1606C22.2501 18.6489 22.5954 19.2967 22.6842 20.1043H20.3458C20.3064 19.832 20.1781 19.616 19.961 19.4564C19.7538 19.2967 19.4776 19.2169 19.1322 19.2169C18.8362 19.2169 18.6093 19.2733 18.4515 19.386C18.2936 19.4892 18.2147 19.6348 18.2147 19.8226C18.2147 20.0479 18.338 20.2169 18.5847 20.3296C18.8412 20.4423 19.2358 20.555 19.7686 20.6676C20.3804 20.8179 20.8786 20.9681 21.2634 21.1183C21.6482 21.2592 21.9837 21.4939 22.2698 21.8226C22.5658 22.1418 22.7187 22.5737 22.7286 23.1183C22.7286 23.5784 22.5904 23.9916 22.3142 24.3578C22.0478 24.7146 21.6581 24.9963 21.145 25.2029C20.6418 25.4094 20.0548 25.5127 19.3838 25.5127Z" fill="#3A3B7B"/>
<path d="M29.1756 23.3578V25.4H27.888C26.9704 25.4 26.2551 25.1888 25.7421 24.7662C25.229 24.3343 24.9725 23.6348 24.9725 22.6676V19.5409H23.9661V17.5409H24.9725V15.6254H27.5032V17.5409H29.1608V19.5409H27.5032V22.6958C27.5032 22.9306 27.5624 23.0996 27.6808 23.2029C27.7992 23.3061 27.9965 23.3578 28.2728 23.3578H29.1756Z" fill="#3A3B7B"/>
<path d="M30.3781 21.4564C30.3781 20.6489 30.5359 19.9399 30.8517 19.3296C31.1772 18.7193 31.6163 18.2498 32.1688 17.9212C32.7213 17.5925 33.338 17.4282 34.0188 17.4282C34.6009 17.4282 35.109 17.5409 35.5432 17.7662C35.9872 17.9916 36.3275 18.2874 36.5643 18.6536V17.5409H39.0951V25.4H36.5643V24.2874C36.3177 24.6536 35.9724 24.9493 35.5284 25.1747C35.0942 25.4 34.5861 25.5127 34.004 25.5127C33.3331 25.5127 32.7213 25.3484 32.1688 25.0198C31.6163 24.6817 31.1772 24.2075 30.8517 23.5972C30.5359 22.9775 30.3781 22.2639 30.3781 21.4564ZM36.5643 21.4705C36.5643 20.8695 36.3867 20.3953 36.0316 20.0479C35.6862 19.7005 35.262 19.5268 34.7588 19.5268C34.2556 19.5268 33.8264 19.7005 33.4712 20.0479C33.1259 20.3859 32.9532 20.8554 32.9532 21.4564C32.9532 22.0573 33.1259 22.5362 33.4712 22.893C33.8264 23.2404 34.2556 23.4141 34.7588 23.4141C35.262 23.4141 35.6862 23.2404 36.0316 22.893C36.3867 22.5456 36.5643 22.0714 36.5643 21.4705Z" fill="#3A3B7B"/>
<path d="M42.4962 18.7522V23.5068C42.4962 23.8994 42.5802 24.1791 42.7482 24.3459C42.9161 24.5029 43.2076 24.5814 43.6226 24.5814H44.6157V25.7149H43.4003C42.6493 25.7149 42.0861 25.5431 41.7106 25.1997C41.3352 24.8562 41.1474 24.2919 41.1474 23.5068V18.7522H40.0951V17.6481H41.1474V15.6167H42.4962V17.6481H44.6157V18.7522H42.4962Z" fill="#3A3B7B"/>
<path d="M46.1313 16.338C45.8744 16.338 45.657 16.2497 45.4791 16.0731C45.3013 15.8964 45.2124 15.6805 45.2124 15.4254C45.2124 15.1702 45.3013 14.9543 45.4791 14.7777C45.657 14.601 45.8744 14.5127 46.1313 14.5127C46.3783 14.5127 46.5858 14.601 46.7538 14.7777C46.9317 14.9543 47.0206 15.1702 47.0206 15.4254C47.0206 15.6805 46.9317 15.8964 46.7538 16.0731C46.5858 16.2497 46.3783 16.338 46.1313 16.338ZM46.7834 17.6481V25.7149H45.4347V17.6481H46.7834Z" fill="#3A3B7B"/>
<path d="M49.6158 14.8218V25.7149H48.267V14.8218H49.6158Z" fill="#3A3B7B"/>
<path d="M58.0951 17.6481L53.204 29.5127H51.8107L53.4115 25.6265L50.1359 17.6481H51.6329L54.1822 24.184L56.7019 17.6481H58.0951Z" fill="#3A3B7B"/>
<path d="M20.8581 12.412C20.1692 12.4332 20.7828 13.4157 20.1357 13.1303C19.4885 12.845 17.5964 11.2989 17.1141 10.7613L17.116 10.7961C16.5413 10.171 15.848 9.67639 15.0845 9.34695C14.321 9.0175 13.5059 8.86116 12.6958 8.88879C11.8858 8.91643 11.1006 9.12729 10.3949 9.50683C9.68916 9.88636 9.08001 10.4253 8.60999 11.0861L8.60807 11.0512C8.05265 11.8472 7.26441 12.4336 6.35095 12.7303C5.43749 13.027 4.44328 13.0195 3.50374 12.7091C2.56428 12.3985 1.72533 11.8001 1.10128 10.9952C0.47722 10.1904 0.0985602 9.21837 0.0167509 8.21178C-0.0650585 7.20519 0.154162 6.21287 0.644347 5.37034C1.13452 4.5278 1.87195 3.87591 2.75592 3.5037C3.63997 3.1314 4.62755 3.05688 5.58404 3.29027C6.54061 3.52355 7.41951 4.05341 8.10085 4.80758L8.09809 4.77371C8.67268 5.39869 9.36584 5.89305 10.1291 6.22246C10.8923 6.55186 11.7072 6.70836 12.5169 6.68094C13.3267 6.65352 14.1118 6.44287 14.8174 6.06367C15.5231 5.68452 16.1323 5.14605 16.6025 4.4857L16.6052 4.51957C17.0615 3.8714 18.3279 2.08511 19.0409 1.76087C19.7538 1.43662 19.8904 2.58502 20.684 2.66484C21.4775 2.74457 22.2491 3.0298 22.9272 3.49387C23.6054 3.95804 24.1681 4.58609 24.5632 5.31982C24.9584 6.05363 25.1732 6.86937 25.1877 7.69151C25.2023 8.51375 25.0161 9.31568 24.6465 10.0231C24.2768 10.7305 23.7356 11.3205 23.0731 11.7385C22.4106 12.1564 21.6482 12.3887 20.8564 12.4139L20.8581 12.412Z" fill="url(#paint0_linear_22_9)"/>
<path d="M16.5774 7.47378C16.8285 11.3308 20.0334 14.2453 23.7356 13.9837C27.4378 13.722 30.2355 10.3832 29.9843 6.52622C29.7332 2.66924 26.5283 -0.245335 22.8261 0.0163265C19.1238 0.277987 16.3262 3.6168 16.5774 7.47378Z" fill="url(#paint1_linear_22_9)"/>
<defs>
<linearGradient id="paint0_linear_22_9" x1="5.7764" y1="14.2749" x2="29.1157" y2="14.2749" gradientUnits="userSpaceOnUse">
<stop stop-color="#E56F8C"/>
<stop offset="0.802083" stop-color="#7476ED"/>
</linearGradient>
<linearGradient id="paint1_linear_22_9" x1="5.7764" y1="14.2749" x2="29.1157" y2="14.2749" gradientUnits="userSpaceOnUse">
<stop stop-color="#E56F8C"/>
<stop offset="0.802083" stop-color="#7476ED"/>
</linearGradient>
</defs>
</svg>
